<svg width="418" height="384" viewBox="0 0 418 384" fill="none" xmlns="http://www.w3.org/2000/svg">
<path d="M209 384C202.577 383.992 196.305 382.051 191 378.43C112.41 325.08 78.38 288.5 59.61 265.63C19.61 216.88 0.459996 166.83 0.999996 112.63C1.63 50.52 51.46 0 112.08 0C156.16 0 186.69 24.83 204.47 45.51C205.033 46.1585 205.729 46.6785 206.511 47.0349C207.292 47.3912 208.141 47.5757 209 47.5757C209.859 47.5757 210.708 47.3912 211.489 47.0349C212.271 46.6785 212.967 46.1585 213.53 45.51C231.31 24.81 261.84 0 305.92 0C366.54 0 416.37 50.52 417 112.64C417.54 166.85 398.37 216.9 358.39 265.64C339.62 288.51 305.59 325.09 227 378.44C221.694 382.058 215.422 383.995 209 384Z" fill="#C84B31"/>
</svg>
